<?xml version="1.0" standalone="no"?>
<!DOCTYPE svg PUBLIC "-//W3C//DTD SVG 20010904//EN"
 "http://www.w3.org/TR/2001/REC-SVG-20010904/DTD/svg10.dtd">
<svg version="1.0" xmlns="http://www.w3.org/2000/svg"
 width="500.000000pt" height="500.000000pt" viewBox="0 0 500.000000 500.000000"
 preserveAspectRatio="xMidYMid meet">
<metadata>
Created by potrace 1.16, written by Peter Selinger 2001-2019
</metadata>
<g transform="translate(0.000000,500.000000) scale(0.100000,-0.100000)"
fill="#000000" stroke="none">
<path d="M2365 4774 c-847 -52 -1594 -575 -1925 -1347 -203 -474 -236 -1009
-94 -1502 77 -264 229 -558 403 -775 132 -166 357 -367 536 -482 691 -439
1570 -469 2284 -75 100 55 119 78 99 122 -21 47 -46 42 -220 -44 -225 -111
-376 -161 -628 -207 -135 -25 -525 -25 -660 0 -473 87 -844 277 -1160 595
-324 326 -526 725 -597 1183 -24 156 -24 453 0 607 88 557 382 1052 819 1378
376 281 804 423 1271 423 552 0 1071 -211 1466 -594 579 -563 785 -1399 535
-2165 -19 -57 -34 -112 -34 -122 0 -43 71 -66 104 -33 20 19 78 202 106 331
35 160 50 307 50 478 0 350 -75 675 -227 983 -368 746 -1104 1219 -1938 1245
-71 3 -157 3 -190 1z"/>
<path d="M3345 3960 c-130 -18 -351 -91 -339 -112 4 -7 2 -8 -5 -4 -22 14
-279 -153 -266 -174 3 -5 0 -12 -6 -16 -8 -4 -9 -3 -5 4 4 7 3 12 -2 12 -10 0
-43 -34 -40 -41 2 -2 1 -3 -1 -2 -9 6 -30 -20 -24 -30 3 -5 2 -7 -3 -4 -15 9
-86 -61 -78 -76 4 -6 3 -9 -1 -4 -12 10 -46 -23 -38 -37 3 -6 3 -8 -1 -4 -9 7
-35 -16 -86 -75 -28 -33 -31 -39 -19 -55 13 -15 12 -16 -3 -4 -14 12 -22 7
-59 -40 -23 -29 -62 -82 -87 -117 -44 -61 -46 -63 -81 -57 -103 16 -323 17
-456 2 -313 -34 -526 -120 -685 -276 -106 -103 -154 -199 -158 -315 -3 -68 0
-89 17 -124 35 -68 116 -108 278 -136 91 -16 315 -19 418 -6 66 9 74 7 60 -14
-6 -7 -37 -53 -69 -102 -33 -48 -81 -117 -108 -152 -26 -35 -45 -68 -41 -74 3
-5 1 -7 -4 -4 -14 9 -47 -29 -37 -44 4 -7 3 -10 -3 -6 -13 8 -36 -17 -25 -28
4 -5 2 -5 -4 -2 -6 3 -39 -23 -75 -59 -85 -87 -159 -144 -244 -187 -82 -42
-74 -51 38 -45 55 3 86 11 132 34 33 17 59 36 58 42 -2 6 4 9 11 6 29 -11 231
212 358 396 107 155 118 173 111 184 -3 6 -3 8 2 4 5 -5 23 14 41 40 29 44 37
50 91 61 254 57 627 208 878 356 42 25 84 45 93 45 9 0 123 -25 252 -55 598
-141 702 -165 802 -185 189 -37 278 -29 278 26 0 47 -98 117 -236 170 -119 46
-523 180 -661 220 -73 21 -133 40 -133 44 0 3 42 43 93 88 244 217 431 496
468 698 29 155 -44 226 -241 237 -52 3 -122 2 -155 -3z m202 -140 c43 -15 56
-47 51 -123 -3 -50 -12 -82 -41 -139 -48 -94 -146 -226 -244 -329 -94 -98
-272 -249 -294 -249 -9 0 -83 15 -164 34 -81 19 -204 44 -274 56 -169 29 -161
24 -117 69 24 25 35 44 31 52 -6 8 -4 10 4 4 9 -5 33 12 69 47 32 30 76 70 99
90 23 20 39 39 37 42 -2 3 -1 4 3 1 10 -8 43 26 36 38 -3 6 -1 7 6 3 11 -7
107 64 139 103 6 8 12 12 12 8 0 -4 37 20 83 52 167 118 331 206 441 236 63
17 85 18 123 5z m-1522 -948 c23 -4 41 -13 43 -22 2 -8 0 -12 -4 -8 -9 10 -46
-50 -38 -63 3 -5 0 -8 -6 -7 -6 2 -57 -73 -114 -166 -57 -93 -109 -172 -117
-176 -27 -16 -255 -33 -354 -27 -213 13 -317 75 -301 180 23 144 181 241 456
282 91 14 369 18 435 7z m300 -37 c151 -25 350 -66 359 -75 12 -12 -267 -148
-415 -203 -138 -50 -309 -99 -309 -89 0 4 7 17 15 28 8 12 11 24 8 28 -3 3 -2
6 4 6 12 0 66 79 66 97 0 7 5 9 10 6 6 -4 8 0 4 10 -3 9 -1 19 5 23 7 4 8 3 4
-4 -4 -7 -5 -12 -3 -12 2 0 24 28 47 63 60 85 100 137 108 137 4 0 48 -7 97
-15z"/>
<path d="M1663 1619 c-97 -23 -137 -117 -75 -179 20 -19 47 -32 88 -40 75 -16
94 -26 94 -51 0 -44 -93 -48 -171 -9 l-39 20 0 -43 c0 -42 1 -44 39 -55 100
-30 225 -2 255 57 41 79 -2 136 -122 162 -28 5 -58 16 -68 24 -18 13 -18 14 0
34 25 27 86 28 144 1 l42 -19 0 44 0 43 -42 7 c-85 13 -104 13 -145 4z"/>
<path d="M3220 1621 c-76 -15 -113 -52 -113 -113 0 -54 39 -90 114 -107 100
-23 122 -45 74 -77 -30 -20 -93 -13 -151 16 -21 11 -40 20 -41 20 -2 0 -3 -20
-3 -44 0 -43 0 -44 44 -55 57 -14 146 -14 183 0 51 19 83 58 83 102 0 70 -21
89 -129 117 -74 18 -98 42 -67 66 28 20 95 17 141 -6 22 -11 41 -20 42 -20 2
0 3 18 3 40 0 33 -4 42 -22 49 -36 13 -120 19 -158 12z"/>
<path d="M2025 1603 c-25 -66 -125 -341 -125 -346 0 -4 20 -7 43 -7 42 0 45 2
60 40 l15 40 67 0 67 0 15 -40 c15 -38 18 -40 60 -40 23 0 43 4 43 9 0 7 -32
95 -106 294 l-26 67 -53 0 c-41 0 -54 -4 -60 -17z"/>
<path d="M2332 1438 l3 -183 43 -3 42 -3 0 70 c0 68 1 71 24 71 18 0 37 -17
76 -70 l52 -70 55 0 c62 0 63 -5 -13 91 l-52 65 34 31 c28 25 34 37 34 72 0
89 -38 111 -195 111 l-105 0 2 -182z"/>
<path d="M2757 1441 c-37 -99 -67 -183 -67 -186 0 -3 20 -5 43 -5 42 0 45 2
60 40 l15 40 67 0 67 0 15 -40 c15 -38 18 -40 60 -40 23 0 43 4 43 9 0 5 -29
87 -64 183 l-64 173 -54 3 -55 3 -66 -180z"/>
<path d="M3450 1585 l0 -35 55 0 54 0 3 -147 3 -148 43 -3 42 -3 0 150 0 151
60 0 60 0 0 35 0 35 -160 0 -160 0 0 -35z"/>
<path d="M3790 1616 c0 -3 29 -53 65 -113 64 -106 65 -109 65 -180 l0 -73 45
0 45 0 0 70 c0 68 1 71 70 185 l70 116 -52 -3 -53 -3 -36 -68 c-40 -76 -36
-77 -88 16 l-32 57 -50 0 c-27 0 -49 -2 -49 -4z"/>
<path d="M4296 1612 c-11 -17 -126 -337 -126 -349 0 -9 14 -13 41 -13 38 0 42
2 56 40 l16 40 67 0 67 0 16 -41 c15 -39 17 -40 59 -37 24 2 42 8 41 13 -1 6
-30 88 -65 182 l-63 173 -52 0 c-28 0 -54 -4 -57 -8z"/>
<path d="M2020 1100 c0 -16 7 -20 35 -20 l35 0 0 -100 c0 -93 1 -100 20 -100
18 0 20 8 22 98 l3 97 33 3 c24 2 32 8 32 23 0 17 -8 19 -90 19 -83 0 -90 -1
-90 -20z"/>
<path d="M2250 1000 l0 -120 75 0 c60 0 75 3 75 15 0 11 -11 15 -42 15 -56 0
-70 11 -66 46 3 27 6 29 51 32 39 3 47 6 47 23 0 16 -7 19 -50 19 -47 0 -50 2
-50 25 0 24 3 25 55 25 48 0 55 2 55 20 0 18 -7 20 -75 20 l-75 0 0 -120z"/>
<path d="M2487 1099 c-54 -42 -56 -170 -3 -204 53 -34 136 -24 136 16 0 20
-15 26 -25 9 -11 -18 -56 -10 -80 15 -40 39 -29 124 18 146 19 9 31 7 56 -5
31 -16 31 -16 31 8 0 13 -7 27 -16 30 -33 13 -92 6 -117 -15z"/>
<path d="M2680 1000 c0 -113 1 -120 20 -120 18 0 20 7 20 56 l0 55 48 -3 47
-3 3 -52 c3 -45 6 -53 23 -53 18 0 19 8 19 120 0 113 -1 120 -20 120 -17 0
-20 -7 -20 -44 l0 -44 -46 -4 c-25 -2 -47 -1 -50 1 -2 2 -4 24 -4 48 0 36 -3
43 -20 43 -19 0 -20 -7 -20 -120z"/>
<path d="M2930 1000 c0 -113 1 -120 20 -120 17 0 19 8 22 87 l3 88 35 -60 c19
-33 41 -72 49 -87 10 -19 22 -28 38 -28 23 0 23 1 23 120 0 113 -1 120 -20
120 -18 0 -20 -7 -20 -70 0 -38 -3 -70 -7 -70 -5 0 -25 32 -46 70 -33 63 -41
70 -67 70 l-30 0 0 -120z"/>
<path d="M3209 1091 c-26 -26 -29 -36 -29 -89 0 -50 4 -66 25 -90 30 -36 73
-48 119 -32 47 15 70 64 64 138 -4 46 -10 59 -34 79 -43 34 -107 32 -145 -6z
m117 -27 c23 -35 23 -108 -1 -134 -52 -58 -123 21 -95 106 19 57 68 72 96 28z"/>
<path d="M3683 1108 c-29 -14 -53 -66 -53 -116 0 -48 34 -102 74 -115 38 -13
110 8 102 29 -3 8 -2 12 4 9 31 -19 45 115 16 159 -28 43 -93 58 -143 34z m86
-35 c27 -22 37 -79 20 -118 -7 -16 -13 -34 -13 -40 -2 -17 -60 -5 -78 17 -26
29 -24 112 2 138 25 25 41 25 69 3z"/>
<path d="M3943 1108 c-11 -5 -29 -25 -38 -43 -33 -60 -1 -187 42 -170 8 2 11
1 8 -5 -8 -13 55 -22 90 -12 29 8 30 11 33 68 l3 59 -45 1 c-37 0 -44 -3 -43
-18 1 -12 9 -18 24 -18 19 0 23 -5 23 -30 0 -26 -4 -30 -28 -30 -16 0 -38 9
-49 19 -12 11 -23 18 -25 16 -2 -2 -3 19 -1 48 1 42 7 56 28 74 31 27 46 28
85 8 29 -15 30 -15 30 9 0 13 -7 27 -16 30 -24 9 -96 6 -121 -6z"/>
<path d="M4130 1113 c0 -3 16 -35 35 -70 27 -49 35 -75 35 -113 0 -47 2 -50
25 -50 23 0 25 3 25 50 0 29 7 61 16 75 9 13 12 30 8 36 -4 7 -3 10 2 6 5 -3
20 12 32 34 l23 39 -26 0 c-20 0 -30 -10 -51 -52 l-27 -53 -25 53 c-20 40 -31
52 -49 52 -13 0 -23 -3 -23 -7z"/>
</g>
</svg>
